<?xml version="1.0" encoding="UTF-8" standalone="no"?>
<!-- Created with Inkscape (http://www.inkscape.org/) -->

<svg
   xmlns:dc="http://purl.org/dc/elements/1.1/"
   xmlns:cc="http://creativecommons.org/ns#"
   xmlns:rdf="http://www.w3.org/1999/02/22-rdf-syntax-ns#"
   xmlns:svg="http://www.w3.org/2000/svg"
   xmlns="http://www.w3.org/2000/svg"
   xmlns:sodipodi="http://sodipodi.sourceforge.net/DTD/sodipodi-0.dtd"
   xmlns:inkscape="http://www.inkscape.org/namespaces/inkscape"
   version="1.1"
   id="svg815"
   xml:space="preserve"
   width="2.9502358cm"
   height="4.7063179cm"
   viewBox="0 0 111.50498 177.87658"
   sodipodi:docname="morpheans.svg"
   inkscape:version="0.92.4 (5da689c313, 2019-01-14)"><metadata
     id="metadata821"><rdf:RDF><cc:Work
         rdf:about=""><dc:format>image/svg+xml</dc:format><dc:type
           rdf:resource="http://purl.org/dc/dcmitype/StillImage" /><dc:title></dc:title></cc:Work></rdf:RDF></metadata><defs
     id="defs819"><clipPath
       clipPathUnits="userSpaceOnUse"
       id="clipPath831"><path
         d="M 0,696.151 H 669.585 V 0 H 0 Z"
         id="path829"
         inkscape:connector-curvature="0" /></clipPath></defs><sodipodi:namedview
     pagecolor="#ffffff"
     bordercolor="#666666"
     borderopacity="1"
     objecttolerance="10"
     gridtolerance="10"
     guidetolerance="10"
     inkscape:pageopacity="0"
     inkscape:pageshadow="2"
     inkscape:window-width="3240"
     inkscape:window-height="2035"
     id="namedview817"
     showgrid="false"
     inkscape:zoom="1.861665"
     inkscape:cx="-76.988062"
     inkscape:cy="240.81322"
     inkscape:window-x="-13"
     inkscape:window-y="-13"
     inkscape:window-maximized="1"
     inkscape:current-layer="g823"
     units="cm"
     fit-margin-top="0"
     fit-margin-left="0"
     fit-margin-right="0"
     fit-margin-bottom="0" /><g
     id="g823"
     inkscape:groupmode="layer"
     inkscape:label="morpheans"
     transform="matrix(1.3333333,0,0,-1.3333333,-523.37808,401.16404)"><g
       id="g825"
       style="fill:#000000"
       transform="matrix(0.29442642,0,0,0.29442642,335.96754,118.1593)"><g
         id="g827"
         clip-path="url(#clipPath831)"
         style="fill:#000000"><g
           id="g833"
           transform="translate(247.3346,343.6699)"
           style="fill:#000000"><path
             d="m 0,0 c 32.235,-23.816 31.943,-47.279 31.73,-64.417 -0.016,-1.337 -0.032,-2.641 -0.032,-3.907 v -8.891 c 0,-4.615 3.75,-8.369 8.36,-8.369 h 96 c 4.615,0 8.37,3.754 8.37,8.369 l -0.002,11.698 c -0.031,16.952 -0.079,42.557 31.222,66.211 24.948,23.75 38.988,55.591 39.701,89.911 H -40.433 C -39.689,56.359 -25.042,23.468 0,0 m 136.058,-90.584 h -96 c -7.367,0 -13.36,5.997 -13.36,13.369 v 8.891 c 0,1.287 0.016,2.611 0.033,3.97 0.21,16.97 0.473,38.092 -29.816,60.416 l -0.225,0.187 c -26.72,24.984 -42.084,60.286 -42.152,96.852 l -0.005,2.504 h 265.849 l -0.005,-2.504 C 220.309,56.399 205.611,22.26 178.99,-3.027 l -0.217,-0.184 c -29.422,-22.175 -29.378,-45.364 -29.347,-62.296 l 0.002,-11.708 c 0,-7.372 -5.998,-13.369 -13.37,-13.369"
             style="fill:#000000;fill-opacity:1;fill-rule:nonzero;stroke:none"
             id="path835"
             inkscape:connector-curvature="0" /></g><g
           id="g837"
           transform="translate(213.8824,507.6152)"
           style="fill:#000000"><path
             d="m 0,0 c -0.597,0 -1.226,0.056 -1.87,0.165 l 0.84,4.93 C -0.663,5.032 -0.316,5 0,5 Z"
             style="fill:#000000;fill-opacity:1;fill-rule:nonzero;stroke:none"
             id="path839"
             inkscape:connector-curvature="0" /></g><g
           id="g841"
           transform="translate(225.9244,434.2744)"
           style="fill:#000000"><path
             d="m 0,0 c -0.893,0 -1.757,0.48 -2.208,1.324 -7.468,13.995 -12.154,29.095 -13.928,44.878 -0.155,1.372 0.833,2.61 2.205,2.764 1.366,0.159 2.609,-0.833 2.764,-2.205 C -9.465,31.608 -4.966,17.113 2.204,3.678 2.854,2.46 2.393,0.945 1.175,0.295 0.8,0.096 0.397,0 0,0"
             style="fill:#000000;fill-opacity:1;fill-rule:nonzero;stroke:none"
             id="path843"
             inkscape:connector-curvature="0" /></g><g
           id="g845"
           transform="translate(443.6602,434.2744)"
           style="fill:#000000"><path
             d="m 0,0 c -0.397,0 -0.8,0.096 -1.175,0.295 -1.218,0.65 -1.679,2.164 -1.029,3.383 7.294,13.673 11.825,28.432 13.47,43.868 0.456,4.296 0.686,8.648 0.686,12.935 0,2.188 -0.059,4.386 -0.176,6.535 -0.075,1.379 0.982,2.556 2.361,2.631 1.385,0.095 2.556,-0.982 2.632,-2.36 0.122,-2.238 0.183,-4.528 0.183,-6.806 0,-4.462 -0.24,-8.993 -0.714,-13.463 C 14.525,30.939 9.805,15.566 2.208,1.324 1.758,0.48 0.894,0 0,0"
             style="fill:#000000;fill-opacity:1;fill-rule:nonzero;stroke:none"
             id="path847"
             inkscape:connector-curvature="0" /></g><g
           id="g849"
           transform="translate(231.3409,507.6142)"
           style="fill:#000000"><path
             d="m 0,0 c -0.347,0 -0.7,0.073 -1.037,0.227 -1.255,0.573 -1.809,2.056 -1.236,3.312 0.985,2.158 1.484,4.473 1.484,6.882 0,7.587 -5.116,14.22 -12.441,16.132 l -2.649,0.691 0.929,2.576 c 17.937,49.729 65.519,83.141 118.401,83.141 32.738,0 63.747,-12.512 87.316,-35.23 0.994,-0.958 1.022,-2.541 0.064,-3.535 -0.958,-0.994 -2.541,-1.022 -3.535,-0.064 -22.631,21.815 -52.407,33.829 -83.845,33.829 C 53.525,107.961 8.52,76.952 -9.351,30.527 -1.246,27.267 4.211,19.352 4.211,10.421 4.211,7.291 3.56,4.277 2.276,1.463 1.856,0.543 0.949,0 0,0"
             style="fill:#000000;fill-opacity:1;fill-rule:nonzero;stroke:none"
             id="path851"
             inkscape:connector-curvature="0" /></g><g
           id="g853"
           transform="translate(279.0323,218.8691)"
           style="fill:#000000"><path
             d="m 0,0 v -9.773 c 0,-4.616 3.75,-8.371 8.36,-8.371 h 96 c 4.616,0 8.37,3.755 8.37,8.371 v 3.357 z m 104.36,-23.144 h -96 C 0.994,-23.144 -5,-17.146 -5,-9.773 V 5.293 l 122.73,-6.984 v -8.082 c 0,-7.373 -5.998,-13.371 -13.37,-13.371"
             style="fill:#000000;fill-opacity:1;fill-rule:nonzero;stroke:none"
             id="path855"
             inkscape:connector-curvature="0" /></g><g
           id="g857"
           transform="translate(355.9864,219.4951)"
           style="fill:#000000"><path
             d="m 0,0 0.078,-0.004 35.698,-2.029 v 12.981 l -112.73,6.406 V 4.383 Z m 40.776,-7.326 -122.73,6.984 v 22.988 l 122.73,-6.973 z"
             style="fill:#000000;fill-opacity:1;fill-rule:nonzero;stroke:none"
             id="path859"
             inkscape:connector-curvature="0" /></g><g
           id="g861"
           transform="translate(279.0323,241.8574)"
           style="fill:#000000"><path
             d="m 0,0 112.73,-6.405 v 9.263 c 0,4.616 -3.754,8.371 -8.37,8.371 h -96 C 3.75,11.229 0,7.474 0,2.858 Z M 117.73,-11.698 -5,-4.725 v 7.583 c 0,7.372 5.994,13.371 13.36,13.371 h 96 c 7.372,0 13.37,-5.999 13.37,-13.371 z"
             style="fill:#000000;fill-opacity:1;fill-rule:nonzero;stroke:none"
             id="path863"
             inkscape:connector-curvature="0" /></g><g
           id="g865"
           transform="translate(309.1524,195.7256)"
           style="fill:#000000"><path
             d="m 0,0 c 1.262,-13.035 12.279,-23.26 25.64,-23.26 13.361,0 24.379,10.225 25.64,23.26 z M 25.64,-28.26 C 8.679,-28.26 -5.12,-14.461 -5.12,2.5 V 5 H 56.4 V 2.5 c 0,-16.961 -13.798,-30.76 -30.76,-30.76"
             style="fill:#000000;fill-opacity:1;fill-rule:nonzero;stroke:none"
             id="path867"
             inkscape:connector-curvature="0" /></g><g
           id="g869"
           transform="translate(426.4308,340.75)"
           style="fill:#000000"><path
             d="M 0,0 -3.656,3.41 -3.2,3.906 0.444,0.484 Z"
             style="fill:#000000;fill-opacity:1;fill-rule:nonzero;stroke:none"
             id="path871"
             inkscape:connector-curvature="0" /></g><g
           id="g873"
           transform="translate(213.8824,507.6152)"
           style="fill:#000000"><path
             d="m 0,0 c -0.597,0 -1.226,0.056 -1.87,0.165 l 0.84,4.93 C -0.663,5.032 -0.316,5 0,5 Z"
             style="fill:#000000;fill-opacity:1;fill-rule:nonzero;stroke:none"
             id="path875"
             inkscape:connector-curvature="0" /></g><g
           id="g877"
           transform="translate(213.8824,523.4658)"
           style="fill:#000000"><path
             d="m 0,0 c -2.989,0 -5.42,-2.437 -5.42,-5.431 0,-2.615 1.861,-4.857 4.425,-5.332 3.485,-0.592 6.425,2.029 6.425,5.332 0,2.593 -1.841,4.833 -4.377,5.327 C 0.701,-0.034 0.351,0 0,0 m 0,-15.851 c -0.597,0 -1.226,0.056 -1.87,0.165 -4.968,0.919 -8.55,5.23 -8.55,10.255 C -10.42,0.321 -5.746,5 0,5 0.678,5 1.357,4.934 2.019,4.802 6.888,3.854 10.43,-0.45 10.43,-5.431 10.43,-11.176 5.751,-15.851 0,-15.851"
             style="fill:#000000;fill-opacity:1;fill-rule:nonzero;stroke:none"
             id="path879"
             inkscape:connector-curvature="0" /></g><g
           id="g881"
           transform="translate(454.4923,536.9551)"
           style="fill:#000000"><path
             d="m 0,0 c -1.319,0 -2.642,-0.158 -3.932,-0.47 -7.501,-1.81 -12.738,-8.471 -12.738,-16.2 0,-9.191 7.479,-16.67 16.67,-16.67 0.991,0 2,0.091 2.997,0.271 7.922,1.434 13.673,8.331 13.673,16.399 C 16.67,-7.479 9.191,0 0,0 m 0,-38.34 c -11.949,0 -21.67,9.721 -21.67,21.67 0,10.047 6.812,18.707 16.565,21.061 C -3.433,4.795 -1.714,5 0,5 11.949,5 21.67,-4.721 21.67,-16.67 21.67,-27.158 14.19,-36.124 3.886,-37.989 2.595,-38.222 1.288,-38.34 0,-38.34"
             style="fill:#000000;fill-opacity:1;fill-rule:nonzero;stroke:none"
             id="path883"
             inkscape:connector-curvature="0" /></g><g
           id="g885"
           transform="translate(462.4151,520.2832)"
           style="fill:#000000"><path
             d="m 0,0 c 0,-4.377 -3.548,-7.925 -7.925,-7.925 -4.376,0 -7.924,3.548 -7.924,7.925 0,4.376 3.548,7.925 7.924,7.925 C -3.548,7.925 0,4.376 0,0"
             style="fill:#000000;fill-opacity:1;fill-rule:nonzero;stroke:none"
             id="path887"
             inkscape:connector-curvature="0" /></g><g
           id="g889"
           transform="translate(454.4903,525.708)"
           style="fill:#000000"><path
             d="m 0,0 c -2.99,0 -5.424,-2.434 -5.424,-5.425 0,-2.991 2.434,-5.425 5.424,-5.425 2.991,0 5.425,2.434 5.425,5.425 C 5.425,-2.434 2.991,0 0,0 m 0,-15.85 c -5.748,0 -10.424,4.677 -10.424,10.425 C -10.424,0.323 -5.748,5 0,5 5.748,5 10.425,0.323 10.425,-5.425 10.425,-11.173 5.748,-15.85 0,-15.85"
             style="fill:#000000;fill-opacity:1;fill-rule:nonzero;stroke:none"
             id="path891"
             inkscape:connector-curvature="0" /></g><g
           id="g893"
           transform="translate(271.1524,495.2158)"
           style="fill:#000000"><path
             d="m 0,0 c -6.009,0 -11.678,1.885 -16.454,5.46 h -0.02 l -0.694,0.545 c -6.604,5.263 -10.392,13.119 -10.392,21.555 0,15.191 12.363,27.549 27.56,27.549 4.393,0 8.747,-1.054 12.592,-3.05 l 1.115,-0.579 0.201,-1.24 c 0.455,-2.807 1.436,-5.458 2.915,-7.877 2.15,-3.52 5.265,-6.397 9.009,-8.32 1.228,-0.631 1.712,-2.138 1.082,-3.365 -0.631,-1.229 -2.139,-1.712 -3.366,-1.082 -4.562,2.342 -8.362,5.855 -10.992,10.161 -1.588,2.598 -2.709,5.414 -3.341,8.386 C 6.334,49.448 3.24,50.109 0,50.109 c -12.439,0 -22.56,-10.116 -22.56,-22.549 0,-6.767 2.978,-13.079 8.186,-17.383 L -14.04,9.913 C -10.017,6.699 -5.162,5 0,5 0.805,5 1.577,5.039 2.294,5.115 3.664,5.266 4.899,4.27 5.046,2.896 5.193,1.522 4.199,0.291 2.826,0.145 1.933,0.049 0.981,0 0,0"
             style="fill:#000000;fill-opacity:1;fill-rule:nonzero;stroke:none"
             id="path895"
             inkscape:connector-curvature="0" /></g><g
           id="g897"
           transform="translate(258.1124,450.6855)"
           style="fill:#000000"><path
             d="m 0,0 c -15.197,0 -27.56,12.363 -27.56,27.56 0,14.19 10.634,25.977 24.736,27.418 l 0.254,0.012 h 0.876 L -1,54.443 c 4.023,-3.214 8.878,-4.913 14.04,-4.913 0.805,0 1.577,0.039 2.294,0.116 1.37,0.15 2.605,-0.846 2.752,-2.22 0.147,-1.373 -0.847,-2.605 -2.22,-2.751 C 14.973,44.579 14.021,44.53 13.04,44.53 7.09,44.53 1.473,46.378 -3.272,49.885 -14.334,48.286 -22.56,38.853 -22.56,27.56 -22.56,15.12 -12.439,5 0,5 0.834,5 1.706,5.032 2.59,5.095 3.963,5.215 5.163,4.157 5.262,2.779 5.36,1.402 4.324,0.206 2.947,0.108 1.944,0.036 0.953,0 0,0"
             style="fill:#000000;fill-opacity:1;fill-rule:nonzero;stroke:none"
             id="path899"
             inkscape:connector-curvature="0" /></g><g
           id="g901"
           transform="translate(245.1632,434.2744)"
           style="fill:#000000"><path
             d="m 0,0 c -0.235,0 -0.475,0.034 -0.711,0.104 -1.324,0.393 -2.08,1.784 -1.687,3.108 3.441,11.606 14.307,19.712 26.423,19.712 8.177,0 15.88,-3.598 21.134,-9.871 C 46.046,11.994 45.906,10.417 44.848,9.53 43.79,8.645 42.214,8.783 41.326,9.842 37.024,14.979 30.718,17.924 24.025,17.924 14.107,17.924 5.212,11.289 2.396,1.79 2.074,0.704 1.079,0 0,0"
             style="fill:#000000;fill-opacity:1;fill-rule:nonzero;stroke:none"
             id="path903"
             inkscape:connector-curvature="0" /></g><g
           id="g905"
           transform="translate(332.2921,434.2754)"
           style="fill:#000000"><path
             d="m 0,0 c -1.381,0 -2.5,1.119 -2.5,2.5 v 113.04 c 0,1.381 1.119,2.5 2.5,2.5 1.381,0 2.5,-1.119 2.5,-2.5 V 2.5 C 2.5,1.119 1.381,0 0,0"
             style="fill:#000000;fill-opacity:1;fill-rule:nonzero;stroke:none"
             id="path907"
             inkscape:connector-curvature="0" /></g><g
           id="g909"
           transform="translate(307.2423,521.7656)"
           style="fill:#000000"><path
             d="m 0,0 c -4.32,0 -8.657,1.053 -12.541,3.045 -1.229,0.63 -1.713,2.137 -1.084,3.365 0.631,1.229 2.138,1.714 3.366,1.084 C -7.078,5.862 -3.53,5 0,5 1.381,5 2.5,3.881 2.5,2.5 2.5,1.119 1.381,0 0,0"
             style="fill:#000000;fill-opacity:1;fill-rule:nonzero;stroke:none"
             id="path911"
             inkscape:connector-curvature="0" /></g><g
           id="g913"
           transform="translate(282.5894,542.5557)"
           style="fill:#000000"><path
             d="m 0,0 c -1.204,0 -2.265,0.872 -2.465,2.099 -2.245,13.806 6.047,27.176 19.288,31.098 8.212,2.423 16.97,0.844 24.031,-4.33 C 47.904,23.702 52.04,15.844 52.203,7.308 52.228,5.927 51.13,4.786 49.75,4.76 48.394,4.737 47.229,5.83 47.203,7.212 47.071,14.176 43.68,20.599 37.899,24.834 32.106,29.079 24.943,30.379 18.241,28.402 7.587,25.246 0.659,14.045 2.471,2.901 2.692,1.538 1.767,0.254 0.404,0.032 0.269,0.011 0.133,0 0,0"
             style="fill:#000000;fill-opacity:1;fill-rule:nonzero;stroke:none"
             id="path915"
             inkscape:connector-curvature="0" /></g><g
           id="g917"
           transform="translate(412.295,450.7461)"
           style="fill:#000000"><path
             d="m 0,0 c -0.173,0 -0.344,0.001 -0.515,0.004 -1.381,0.023 -2.48,1.162 -2.458,2.542 0.024,1.366 1.138,2.458 2.499,2.458 h 0.043 C 6.883,4.837 16.437,7.841 21.286,16.52 23.343,20.651 25.312,27.136 23.1,34.646 20.604,43.119 10.839,50.294 0.867,50.98 c -1.377,0.095 -2.417,1.289 -2.322,2.666 0.095,1.377 1.278,2.419 2.666,2.323 12.116,-0.834 23.588,-9.394 26.685,-19.91 2.092,-7.101 1.325,-14.852 -2.162,-21.825 l -0.05,-0.095 C 19.884,3.698 8.717,0 0,0"
             style="fill:#000000;fill-opacity:1;fill-rule:nonzero;stroke:none"
             id="path919"
             inkscape:connector-curvature="0" /></g><g
           id="g921"
           transform="translate(416.6095,434.2881)"
           style="fill:#000000"><path
             d="m 0,0 c -0.677,0 -1.352,0.273 -1.845,0.812 -3.486,3.807 -8.349,6.549 -13.696,7.72 -1.349,0.296 -2.202,1.629 -1.907,2.978 0.296,1.347 1.626,2.198 2.977,1.907 C -8.126,12.026 -2.333,8.749 1.843,4.188 2.775,3.17 2.705,1.589 1.687,0.656 1.207,0.217 0.603,0 0,0"
             style="fill:#000000;fill-opacity:1;fill-rule:nonzero;stroke:none"
             id="path923"
             inkscape:connector-curvature="0" /></g><g
           id="g925"
           transform="translate(426.4864,434.2744)"
           style="fill:#000000"><path
             d="m 0,0 c -1.076,0 -2.069,0.7 -2.394,1.783 -1.991,6.646 -7.153,12.332 -13.469,14.842 -1.283,0.51 -1.91,1.963 -1.401,3.246 0.51,1.283 1.963,1.909 3.246,1.4 C -6.313,18.211 -0.024,11.293 2.396,3.219 2.792,1.896 2.041,0.503 0.719,0.106 0.479,0.034 0.237,0 0,0"
             style="fill:#000000;fill-opacity:1;fill-rule:nonzero;stroke:none"
             id="path927"
             inkscape:connector-curvature="0" /></g><g
           id="g929"
           transform="translate(339.3575,434.2754)"
           style="fill:#000000"><path
             d="m 0,0 c -1.381,0 -2.5,1.119 -2.5,2.5 v 113.04 c 0,1.381 1.119,2.5 2.5,2.5 1.381,0 2.5,-1.119 2.5,-2.5 V 2.5 C 2.5,1.119 1.381,0 0,0"
             style="fill:#000000;fill-opacity:1;fill-rule:nonzero;stroke:none"
             id="path931"
             inkscape:connector-curvature="0" /></g><g
           id="g933"
           transform="translate(389.4376,544.9902)"
           style="fill:#000000"><path
             d="m 0,0 c -0.041,0 -0.083,0.001 -0.125,0.003 -1.379,0.068 -2.441,1.241 -2.374,2.62 0.522,10.606 -6.258,20.424 -16.121,23.345 -6.697,1.979 -13.863,0.677 -19.657,-3.569 -5.78,-4.235 -9.171,-10.658 -9.303,-17.622 -0.026,-1.381 -1.171,-2.471 -2.548,-2.452 -1.38,0.027 -2.477,1.167 -2.452,2.548 0.163,8.536 4.299,16.395 11.348,21.56 7.062,5.174 15.818,6.754 24.03,4.33 C -5.153,27.194 3.129,15.257 2.495,2.377 2.429,1.04 1.324,0 0,0"
             style="fill:#000000;fill-opacity:1;fill-rule:nonzero;stroke:none"
             id="path935"
             inkscape:connector-curvature="0" /></g><g
           id="g937"
           transform="translate(308.4195,472.9853)"
           style="fill:#000000"><path
             d="m 0,0 c -1.204,0 -2.265,0.872 -2.465,2.099 -2.245,13.806 6.047,27.175 19.288,31.098 2.29,0.67 4.639,1.036 6.99,1.092 0.02,10e-4 0.041,10e-4 0.061,10e-4 1.353,0 2.465,-1.08 2.498,-2.44 0.033,-1.381 -1.06,-2.527 -2.44,-2.559 C 22.016,29.245 20.099,28.945 18.234,28.4 7.586,25.246 0.658,14.045 2.471,2.901 2.692,1.538 1.767,0.254 0.404,0.032 0.269,0.011 0.133,0 0,0"
             style="fill:#000000;fill-opacity:1;fill-rule:nonzero;stroke:none"
             id="path939"
             inkscape:connector-curvature="0" /></g><g
           id="g941"
           transform="translate(349.5323,546.5859)"
           style="fill:#000000"><path
             d="m 0,0 c -0.202,0 -0.414,-0.027 -0.611,-0.078 -1.103,-0.279 -1.868,-1.263 -1.868,-2.393 0,-1.361 1.112,-2.469 2.479,-2.469 0.407,0 0.795,0.096 1.152,0.286 0.814,0.429 1.318,1.265 1.318,2.183 C 2.47,-1.108 1.361,0 0,0 m 0,-8.94 c -3.573,0 -6.479,2.902 -6.479,6.469 0,2.962 2.005,5.539 4.877,6.269 C -1.081,3.932 -0.541,4 0,4 3.567,4 6.47,1.098 6.47,-2.471 6.47,-4.875 5.149,-7.066 3.024,-8.189 2.1,-8.68 1.053,-8.94 0,-8.94"
             style="fill:#000000;fill-opacity:1;fill-rule:nonzero;stroke:none"
             id="path943"
             inkscape:connector-curvature="0" /></g><g
           id="g945"
           transform="translate(363.8829,542.4355)"
           style="fill:#000000"><path
             d="m 0,0 c -1.368,0 -2.48,-1.112 -2.48,-2.48 0,-1.018 0.646,-1.946 1.608,-2.31 0.276,-0.106 0.573,-0.16 0.872,-0.16 0.945,0 1.795,0.531 2.217,1.386 C 2.388,-3.227 2.47,-2.869 2.47,-2.48 2.47,-1.112 1.361,0 0,0 m 0,-8.95 c -0.8,0 -1.574,0.142 -2.303,0.425 C -4.796,-7.582 -6.48,-5.15 -6.48,-2.48 -6.48,1.093 -3.573,4 0,4 3.567,4 6.47,1.093 6.47,-2.48 6.47,-3.49 6.235,-4.485 5.793,-5.356 4.702,-7.565 2.479,-8.95 0,-8.95"
             style="fill:#000000;fill-opacity:1;fill-rule:nonzero;stroke:none"
             id="path947"
             inkscape:connector-curvature="0" /></g><g
           id="g949"
           transform="translate(379.422,547.4775)"
           style="fill:#000000"><path
             d="m 0,0 -0.193,-0.056 c -1.052,-0.298 -1.786,-1.271 -1.786,-2.366 0,-0.807 0.369,-1.366 0.679,-1.692 0.475,-0.504 1.108,-0.778 1.79,-0.778 1.363,0 2.471,1.109 2.471,2.47 0,1.361 -1.108,2.47 -2.471,2.47 C 0.324,0.048 0.16,0.032 0,0 m 0.49,-8.892 c -1.77,0 -3.482,0.74 -4.696,2.03 -1.141,1.199 -1.773,2.779 -1.773,4.44 0,2.338 1.276,4.465 3.24,5.599 v 0.204 l 1.455,0.421 c 0.575,0.163 1.173,0.246 1.774,0.246 3.569,0 6.471,-2.902 6.471,-6.47 0,-3.567 -2.902,-6.47 -6.471,-6.47"
             style="fill:#000000;fill-opacity:1;fill-rule:nonzero;stroke:none"
             id="path951"
             inkscape:connector-curvature="0" /></g><g
           id="g953"
           transform="translate(394.2022,539.4951)"
           style="fill:#000000"><path
             d="m 0,0 c -1.361,0 -2.47,-1.108 -2.47,-2.47 0,-0.491 0.137,-0.947 0.407,-1.354 0.462,-0.699 1.233,-1.115 2.063,-1.115 1.362,0 2.471,1.108 2.471,2.469 0,0.074 -0.007,0.144 -0.012,0.217 C 2.348,-0.981 1.269,0 0,0 m 0,-8.939 c -2.177,0 -4.194,1.086 -5.397,2.907 C -6.099,-4.976 -6.47,-3.743 -6.47,-2.47 -6.47,1.098 -3.567,4 0,4 3.378,4 6.148,1.47 6.442,-1.885 6.461,-2.138 6.471,-2.299 6.471,-2.47 6.471,-6.037 3.568,-8.939 0,-8.939"
             style="fill:#000000;fill-opacity:1;fill-rule:nonzero;stroke:none"
             id="path955"
             inkscape:connector-curvature="0" /></g><g
           id="g957"
           transform="translate(411.9542,522.2588)"
           style="fill:#000000"><path
             d="m 0,0 c -1.308,-0.072 -2.332,-1.154 -2.332,-2.463 0,-0.729 0.322,-1.417 0.884,-1.887 0.452,-0.387 0.995,-0.584 1.587,-0.584 1.361,0 2.469,1.109 2.469,2.471 0,1.361 -1.108,2.47 -2.469,2.47 L 0.073,-0.001 Z m 0.139,-8.934 c -1.537,0 -3.019,0.544 -4.171,1.532 -1.455,1.216 -2.3,3.022 -2.3,4.939 0,3.414 2.659,6.24 6.063,6.454 0.134,0.012 0.278,0.016 0.408,0.016 3.567,0 6.469,-2.903 6.469,-6.47 0,-3.568 -2.902,-6.471 -6.469,-6.471"
             style="fill:#000000;fill-opacity:1;fill-rule:nonzero;stroke:none"
             id="path959"
             inkscape:connector-curvature="0" /></g><g
           id="g961"
           transform="translate(394.7188,503.3652)"
           style="fill:#000000"><path
             d="m 0,0 c -1.308,-0.072 -2.331,-1.155 -2.331,-2.464 0,-0.728 0.322,-1.416 0.884,-1.887 0.451,-0.385 0.994,-0.583 1.586,-0.583 1.361,0 2.469,1.109 2.469,2.47 0,1.362 -1.108,2.471 -2.469,2.471 L 0.073,-0.001 Z m 0.139,-8.934 c -1.536,0 -3.017,0.543 -4.17,1.531 -1.456,1.218 -2.3,3.024 -2.3,4.939 0,3.415 2.659,6.241 6.061,6.455 0.135,0.012 0.279,0.016 0.409,0.016 3.567,0 6.469,-2.903 6.469,-6.471 0,-3.567 -2.902,-6.47 -6.469,-6.47"
             style="fill:#000000;fill-opacity:1;fill-rule:nonzero;stroke:none"
             id="path963"
             inkscape:connector-curvature="0" /></g><g
           id="g965"
           transform="translate(351.6241,538.165)"
           style="fill:#000000"><path
             d="m 0,0 c -0.718,0 -1.412,0.387 -1.771,1.065 -0.515,0.978 -0.142,2.188 0.834,2.704 0.811,0.427 1.315,1.263 1.315,2.181 0,1.362 -1.108,2.471 -2.47,2.471 -0.202,0 -0.414,-0.027 -0.611,-0.078 l -2.293,-0.589 -0.198,2.359 c -0.035,0.416 -0.047,0.831 -0.047,1.247 0,9.457 7.693,17.151 17.149,17.151 9.457,0 17.151,-7.694 17.151,-17.151 V 9.669 L 27.604,9.257 C 26.553,8.958 25.818,7.985 25.818,6.891 c 0,-0.808 0.369,-1.367 0.68,-1.693 0.761,-0.8 0.73,-2.065 -0.071,-2.827 C 25.628,1.609 24.362,1.64 23.6,2.442 c -1.149,1.207 -1.782,2.787 -1.782,4.449 0,2.32 1.257,4.431 3.195,5.572 C 24.451,19.2 18.788,24.511 11.908,24.511 4.994,24.511 -0.691,19.146 -1.203,12.36 1.945,11.926 4.378,9.217 4.378,5.95 4.378,3.546 3.058,1.354 0.933,0.231 0.635,0.074 0.314,0 0,0"
             style="fill:#000000;fill-opacity:1;fill-rule:nonzero;stroke:none"
             id="path967"
             inkscape:connector-curvature="0" /></g><g
           id="g969"
           transform="translate(348.3829,524)"
           style="fill:#000000"><path
             d="m 0,0 c -1.104,0 -2,0.896 -2,2 v 13.17 c 0,1.104 0.896,2 2,2 1.104,0 2,-0.896 2,-2 V 2 C 2,0.896 1.104,0 0,0"
             style="fill:#000000;fill-opacity:1;fill-rule:nonzero;stroke:none"
             id="path971"
             inkscape:connector-curvature="0" /></g><g
           id="g973"
           transform="translate(368.1524,518.3359)"
           style="fill:#000000"><path
             d="m 0,0 c -5.972,0 -10.83,4.858 -10.83,10.829 0,3.097 1.332,6.052 3.654,8.108 l 0.912,0.807 1.137,-0.439 c 0.535,-0.208 1.2,-0.206 1.761,0.015 1.024,0.409 2.188,-0.096 2.595,-1.123 0.408,-1.026 -0.095,-2.188 -1.123,-2.595 C -2.949,15.183 -4.118,15.054 -5.228,15.22 -6.255,13.996 -6.83,12.443 -6.83,10.829 -6.83,7.063 -3.767,4 0,4 2.285,4 4.41,5.137 5.684,7.04 6.296,7.958 7.54,8.206 8.457,7.591 9.376,6.978 9.622,5.735 9.008,4.817 6.991,1.801 3.624,0 0,0"
             style="fill:#000000;fill-opacity:1;fill-rule:nonzero;stroke:none"
             id="path975"
             inkscape:connector-curvature="0" /></g><g
           id="g977"
           transform="translate(375.2257,498.8525)"
           style="fill:#000000"><path
             d="m 0,0 -0.073,-0.165 c -0.131,-0.288 -0.2,-0.621 -0.2,-0.962 0,-1.024 0.612,-1.927 1.559,-2.298 0.285,-0.114 0.596,-0.172 0.911,-0.172 0.946,0 1.795,0.531 2.216,1.385 0.172,0.339 0.254,0.696 0.254,1.085 0,1.361 -1.108,2.47 -2.47,2.47 -0.076,0 -0.148,0 -0.22,-0.013 C 1.085,1.222 0.37,0.722 0,0 m 2.197,-7.597 c -0.819,0 -1.644,0.157 -2.384,0.453 -2.477,0.97 -4.086,3.334 -4.086,6.017 0,0.759 0.127,1.489 0.379,2.18 v 0.03 l 0.169,0.395 c 0.916,2.083 2.883,3.543 5.135,3.811 0.181,0.032 0.461,0.054 0.787,0.054 3.568,0 6.47,-2.903 6.47,-6.47 0,-1.01 -0.234,-2.005 -0.677,-2.876 C 6.9,-6.212 4.677,-7.597 2.197,-7.597"
             style="fill:#000000;fill-opacity:1;fill-rule:nonzero;stroke:none"
             id="path979"
             inkscape:connector-curvature="0" /></g><g
           id="g981"
           transform="translate(347.0352,487.7226)"
           style="fill:#000000"><path
             d="m 0,0 -0.073,-0.165 c -0.131,-0.288 -0.2,-0.621 -0.2,-0.962 0,-1.024 0.612,-1.927 1.559,-2.298 0.285,-0.114 0.596,-0.172 0.91,-0.172 0.947,0 1.795,0.531 2.216,1.384 0.172,0.34 0.254,0.697 0.254,1.086 0,1.361 -1.108,2.47 -2.47,2.47 -0.075,0 -0.146,0 -0.217,-0.013 C 1.085,1.222 0.37,0.722 0,0 m 2.196,-7.597 c -0.831,0 -1.633,0.153 -2.383,0.453 -2.477,0.97 -4.086,3.334 -4.086,6.017 0,0.759 0.127,1.489 0.379,2.18 v 0.03 l 0.169,0.395 c 0.916,2.083 2.883,3.543 5.135,3.811 0.179,0.032 0.459,0.054 0.786,0.054 3.568,0 6.47,-2.903 6.47,-6.47 0,-1.01 -0.234,-2.005 -0.677,-2.876 C 6.901,-6.211 4.677,-7.597 2.196,-7.597"
             style="fill:#000000;fill-opacity:1;fill-rule:nonzero;stroke:none"
             id="path983"
             inkscape:connector-curvature="0" /></g><g
           id="g985"
           transform="translate(376.5157,478.3925)"
           style="fill:#000000"><path
             d="M 0,0 -0.088,-0.197 C -0.141,-0.312 -0.179,-0.423 -0.196,-0.52 l -0.027,-0.123 c -0.041,-0.162 -0.06,-0.327 -0.06,-0.504 0,-1.025 0.612,-1.926 1.558,-2.297 0.565,-0.226 1.209,-0.232 1.791,-0.008 0.574,0.219 1.06,0.666 1.341,1.229 0.168,0.33 0.25,0.687 0.25,1.076 0,1.362 -1.108,2.47 -2.47,2.47 C 2.108,1.323 2.033,1.321 1.959,1.31 1.083,1.203 0.374,0.71 0,0 m 2.187,-7.617 c -0.83,0 -1.631,0.152 -2.383,0.454 -2.477,0.969 -4.087,3.332 -4.087,6.016 0,0.48 0.055,0.957 0.165,1.416 0.051,0.254 0.123,0.511 0.215,0.765 v 0.029 l 0.169,0.396 c 0.916,2.08 2.882,3.54 5.132,3.81 0.19,0.033 0.475,0.054 0.789,0.054 3.568,0 6.47,-2.902 6.47,-6.47 0,-1.012 -0.235,-2.007 -0.679,-2.878 C 7.25,-5.481 6.013,-6.609 4.5,-7.187 3.763,-7.471 2.981,-7.617 2.187,-7.617"
             style="fill:#000000;fill-opacity:1;fill-rule:nonzero;stroke:none"
             id="path987"
             inkscape:connector-curvature="0" /></g><g
           id="g989"
           transform="translate(369.7628,457.1679)"
           style="fill:#000000"><path
             d="m 0,0 c -0.118,-0.276 -0.181,-0.591 -0.181,-0.912 0,-1.025 0.613,-1.927 1.559,-2.298 0.288,-0.115 0.599,-0.173 0.912,-0.173 0.945,0 1.795,0.531 2.217,1.386 0.171,0.338 0.253,0.695 0.253,1.085 0,0.499 -0.145,0.976 -0.417,1.381 C 3.88,1.147 3.11,1.558 2.29,1.558 2.214,1.558 2.142,1.558 2.069,1.545 1.2,1.438 0.499,0.961 0.121,0.269 Z m 2.29,-7.383 c -0.818,0 -1.643,0.157 -2.384,0.454 -2.476,0.969 -4.087,3.333 -4.087,6.017 0,0.744 0.131,1.488 0.38,2.175 v 0.035 l 0.169,0.394 C -2.717,3.773 -0.75,5.233 1.501,5.503 1.684,5.536 1.964,5.558 2.29,5.558 4.435,5.558 6.439,4.495 7.652,2.714 8.379,1.64 8.76,0.388 8.76,-0.912 8.76,-1.923 8.525,-2.918 8.083,-3.789 6.992,-5.998 4.769,-7.383 2.29,-7.383"
             style="fill:#000000;fill-opacity:1;fill-rule:nonzero;stroke:none"
             id="path991"
             inkscape:connector-curvature="0" /></g><g
           id="g993"
           transform="translate(347.0362,447.8535)"
           style="fill:#000000"><path
             d="m 0,0 -0.074,-0.168 c -0.133,-0.292 -0.2,-0.616 -0.2,-0.962 0,-1.024 0.612,-1.926 1.558,-2.297 0.288,-0.115 0.598,-0.173 0.911,-0.173 0.946,0 1.795,0.531 2.216,1.385 0.172,0.339 0.254,0.696 0.254,1.085 0,1.362 -1.108,2.471 -2.47,2.471 C 2.116,1.341 2.042,1.339 1.968,1.327 1.085,1.22 0.371,0.72 0,0 m 2.195,-7.6 c -0.829,0 -1.631,0.153 -2.382,0.454 -2.477,0.969 -4.087,3.333 -4.087,6.016 0,0.759 0.128,1.489 0.379,2.18 v 0.031 l 0.169,0.396 c 0.916,2.08 2.883,3.54 5.133,3.809 0.19,0.033 0.475,0.055 0.788,0.055 3.568,0 6.47,-2.903 6.47,-6.471 0,-1.01 -0.234,-2.005 -0.677,-2.876 C 6.899,-6.214 4.676,-7.6 2.195,-7.6"
             style="fill:#000000;fill-opacity:1;fill-rule:nonzero;stroke:none"
             id="path995"
             inkscape:connector-curvature="0" /></g><g
           id="g997"
           transform="translate(387.5392,521.7187)"
           style="fill:#000000"><path
             d="m 0,0 -0.076,-0.172 c -0.133,-0.292 -0.2,-0.616 -0.2,-0.961 0,-0.345 0.062,-0.662 0.184,-0.944 0.267,-0.625 0.767,-1.115 1.376,-1.354 0.286,-0.115 0.596,-0.173 0.909,-0.173 0.954,0 1.804,0.536 2.217,1.396 0.171,0.348 0.253,0.704 0.253,1.075 0,1.362 -1.108,2.47 -2.47,2.47 C 1.266,1.337 0.421,0.817 0,0 m 2.193,-7.604 c -0.829,0 -1.631,0.153 -2.382,0.455 -1.588,0.623 -2.897,1.897 -3.578,3.491 -0.337,0.777 -0.509,1.631 -0.509,2.525 0,0.758 0.128,1.488 0.38,2.179 v 0.03 l 0.168,0.396 c 1.032,2.347 3.356,3.865 5.921,3.865 3.568,0 6.47,-2.902 6.47,-6.47 0,-0.974 -0.226,-1.951 -0.655,-2.823 -1.06,-2.209 -3.346,-3.648 -5.815,-3.648"
             style="fill:#000000;fill-opacity:1;fill-rule:nonzero;stroke:none"
             id="path999"
             inkscape:connector-curvature="0" /></g><g
           id="g1001"
           transform="translate(409.2218,514.375)"
           style="fill:#000000"><path
             d="M 0,0 C -0.453,0 -0.908,0.152 -1.282,0.466 -2.755,1.698 -3.6,3.504 -3.6,5.421 c 0,2.726 1.696,5.078 4.113,6.023 -0.681,4.851 -4.481,8.709 -9.296,9.477 -0.759,-2.731 -3.267,-4.74 -6.237,-4.74 -2.176,0 -4.194,1.087 -5.397,2.907 -0.609,0.921 -0.356,2.162 0.565,2.77 0.92,0.61 2.163,0.357 2.771,-0.565 0.461,-0.696 1.231,-1.112 2.061,-1.112 1.363,0 2.471,1.108 2.471,2.469 0,0.075 -0.007,0.144 -0.012,0.217 l -0.153,2.142 2.145,0.052 c 8.384,0 15.19,-6.806 15.19,-15.17 V 7.999 L 2.732,7.884 C 1.425,7.812 0.4,6.729 0.4,5.421 0.4,4.691 0.723,4.004 1.284,3.534 2.132,2.825 2.244,1.563 1.535,0.717 1.14,0.244 0.571,0 0,0"
             style="fill:#000000;fill-opacity:1;fill-rule:nonzero;stroke:none"
             id="path1003"
             inkscape:connector-curvature="0" /></g><g
           id="g1005"
           transform="translate(381.4308,493.7558)"
           style="fill:#000000"><path
             d="m 0,0 c -0.305,0 -0.614,0.069 -0.904,0.217 -0.985,0.501 -1.377,1.705 -0.877,2.689 0.161,0.318 0.243,0.675 0.243,1.064 0,1.361 -1.108,2.469 -2.47,2.469 -0.076,0 -0.148,0 -0.221,-0.012 L -5.927,6.143 -6.46,7.78 c -0.496,1.525 -0.748,3.109 -0.748,4.709 0,6.647 4.448,12.616 10.817,14.518 l 1.711,0.51 0.701,-1.642 c 0.262,-0.614 0.762,-1.104 1.372,-1.343 0.286,-0.115 0.595,-0.173 0.909,-0.173 0.954,0 1.803,0.536 2.217,1.396 0.478,0.997 1.673,1.416 2.668,0.937 0.996,-0.477 1.416,-1.671 0.937,-2.668 -1.067,-2.226 -3.353,-3.665 -5.822,-3.665 -0.829,0 -1.631,0.153 -2.383,0.455 -0.988,0.387 -1.868,1.027 -2.556,1.839 -3.932,-1.781 -6.571,-5.771 -6.571,-10.164 0,-0.716 0.068,-1.427 0.204,-2.128 C 0.089,9.878 2.462,7.196 2.462,3.97 2.462,2.96 2.228,1.965 1.785,1.094 1.432,0.399 0.729,0 0,0"
             style="fill:#000000;fill-opacity:1;fill-rule:nonzero;stroke:none"
             id="path1007"
             inkscape:connector-curvature="0" /></g><g
           id="g1009"
           transform="translate(420.4142,483.7187)"
           style="fill:#000000"><path
             d="m 0,0 c -0.236,-1.341 0.663,-2.625 2.004,-2.861 0.074,-0.013 0.142,-0.026 0.213,-0.026 l 0.1,-0.003 c 0.808,-0.048 1.597,0.326 2.085,0.972 L 4.5,-1.771 c 0.183,0.266 0.306,0.574 0.365,0.915 C 5.043,0.152 4.598,1.146 3.729,1.676 3.466,1.839 3.17,1.949 2.861,2.004 1.936,2.165 1.002,1.794 0.438,1.024 0.21,0.721 0.067,0.382 0,0 m 2.447,-6.894 c -0.101,0 -0.202,0.003 -0.304,0.008 -0.264,0.004 -0.531,0.032 -0.834,0.085 -3.511,0.619 -5.867,3.981 -5.248,7.494 0.174,0.994 0.578,1.933 1.165,2.715 1.456,1.987 3.88,2.968 6.329,2.535 C 4.358,5.802 5.142,5.505 5.821,5.085 8.095,3.699 9.271,1.092 8.805,-1.552 8.671,-2.307 8.414,-3.013 8.039,-3.654 L 8.034,-3.682 7.812,-4.021 C 6.616,-5.814 4.585,-6.894 2.447,-6.894"
             style="fill:#000000;fill-opacity:1;fill-rule:nonzero;stroke:none"
             id="path1011"
             inkscape:connector-curvature="0" /></g><g
           id="g1013"
           transform="translate(404.3263,463.3398)"
           style="fill:#000000"><path
             d="m 0,0 c -0.235,-1.342 0.663,-2.625 2.004,-2.861 0.924,-0.163 1.84,0.206 2.396,0.942 l 0.101,0.15 c 0.18,0.261 0.305,0.577 0.364,0.913 0.06,0.337 0.054,0.662 -0.017,0.96 C 4.692,0.767 4.285,1.336 3.727,1.677 3.466,1.839 3.171,1.949 2.861,2.004 1.926,2.168 0.991,1.791 0.435,1.014 0.208,0.703 0.064,0.366 0,0 m 2.432,-6.898 c -0.372,0 -0.747,0.031 -1.121,0.097 -3.513,0.619 -5.869,3.981 -5.25,7.494 v 0.001 c 0.169,0.96 0.561,1.881 1.133,2.664 1.43,1.994 3.929,3.009 6.361,2.585 C 4.373,5.799 5.137,5.51 5.824,5.083 7.277,4.195 8.345,2.714 8.739,1.025 8.937,0.203 8.96,-0.668 8.805,-1.55 8.671,-2.307 8.414,-3.013 8.039,-3.654 L 8.034,-3.681 7.812,-4.021 C 6.6,-5.838 4.568,-6.898 2.432,-6.898"
             style="fill:#000000;fill-opacity:1;fill-rule:nonzero;stroke:none"
             id="path1015"
             inkscape:connector-curvature="0" /></g><g
           id="g1017"
           transform="translate(409.5772,461.7177)"
           style="fill:#000000"><path
             d="M 0,0 -0.406,1.737 C -0.559,2.389 -0.966,2.958 -1.524,3.299 -1.785,3.461 -2.08,3.571 -2.39,3.626 -3.325,3.79 -4.26,3.413 -4.816,2.636 -5.461,1.74 -6.709,1.534 -7.607,2.177 -8.505,2.82 -8.71,4.07 -8.066,4.968 c 1.439,2.006 3.938,3.021 6.37,2.597 0.818,-0.144 1.582,-0.433 2.269,-0.86 0.906,-0.553 1.66,-1.336 2.197,-2.255 4.181,1.073 7.473,4.545 8.234,8.87 0.124,0.705 0.181,1.418 0.168,2.131 -2.96,1.012 -4.833,4.066 -4.275,7.243 0.175,0.993 0.579,1.933 1.166,2.715 0.663,0.883 1.916,1.063 2.8,0.399 0.883,-0.664 1.062,-1.917 0.399,-2.801 -0.215,-0.285 -0.358,-0.624 -0.425,-1.006 -0.236,-1.341 0.663,-2.625 2.004,-2.861 0.074,-0.013 0.142,-0.026 0.213,-0.026 l 1.727,-0.009 0.242,-1.71 c 0.225,-1.586 0.198,-3.191 -0.08,-4.768 C 13.791,6.081 8.375,0.974 1.771,0.206 Z"
             style="fill:#000000;fill-opacity:1;fill-rule:nonzero;stroke:none"
             id="path1019"
             inkscape:connector-curvature="0" /></g><g
           id="g1021"
           transform="translate(394.2325,462.4922)"
           style="fill:#000000"><path
             d="m 0,0 h 0.01 z m -6.544,1.663 c 0.053,-0.798 0.494,-1.53 1.181,-1.941 0.137,-0.089 0.201,-0.118 0.268,-0.149 0.608,-0.273 1.281,-0.291 1.896,-0.055 0.616,0.234 1.103,0.696 1.373,1.298 0.159,0.356 0.23,0.716 0.213,1.072 C -1.649,2.862 -2.209,3.693 -3.071,4.08 -3.358,4.208 -3.664,4.282 -3.959,4.294 -5,4.334 -5.917,3.769 -6.336,2.834 -6.475,2.523 -6.547,2.191 -6.545,1.875 Z m 2.462,-6.311 c -0.898,0 -1.796,0.189 -2.641,0.568 -0.287,0.127 -0.543,0.266 -0.775,0.42 -1.866,1.115 -3.065,3.252 -3.051,5.525 l 0.016,0.412 c 0.047,0.748 0.23,1.483 0.546,2.19 1.097,2.45 3.505,3.958 6.204,3.823 C -3,8.259 -2.183,8.064 -1.437,7.73 0.825,6.719 2.289,4.546 2.384,2.062 2.43,1.108 2.237,0.106 1.826,-0.815 L 1.825,-0.816 C 1.119,-2.395 -0.158,-3.604 -1.772,-4.22 -2.521,-4.506 -3.303,-4.648 -4.082,-4.648"
             style="fill:#000000;fill-opacity:1;fill-rule:nonzero;stroke:none"
             id="path1023"
             inkscape:connector-curvature="0" /></g><g
           id="g1025"
           transform="translate(396.131,434.5966)"
           style="fill:#000000"><path
             d="m 0,0 c -0.273,0 -0.551,0.057 -0.816,0.176 -1.009,0.452 -1.459,1.635 -1.008,2.642 0.151,0.338 0.221,0.698 0.208,1.067 C -1.643,4.856 -2.199,5.691 -3.071,6.082 -3.357,6.21 -3.664,6.284 -3.957,6.296 -4.605,6.31 -5.279,6.084 -5.771,5.63 -6.008,5.413 -6.193,5.149 -6.333,4.837 -6.475,4.521 -6.546,4.196 -6.544,3.873 L -6.542,3.443 -6.717,3.051 C -7.165,2.042 -8.352,1.583 -9.358,2.031 -10.15,2.383 -10.602,3.184 -10.543,4 c 0.016,0.847 0.203,1.678 0.559,2.471 0.364,0.815 0.871,1.523 1.506,2.103 1.262,1.168 2.965,1.781 4.694,1.718 0.782,-0.031 1.597,-0.225 2.346,-0.559 C 0.816,8.724 2.315,6.478 2.382,4.01 2.416,3.055 2.225,2.071 1.826,1.184 1.493,0.44 0.764,0 0,0"
             style="fill:#000000;fill-opacity:1;fill-rule:nonzero;stroke:none"
             id="path1027"
             inkscape:connector-curvature="0" /></g><g
           id="g1029"
           transform="translate(396.5128,436.5527)"
           style="fill:#000000"><path
             d="M 0,0 C -1.08,0 -1.969,0.86 -1.998,1.946 -2.024,2.9 -2.581,3.735 -3.453,4.126 -3.739,4.254 -4.046,4.328 -4.339,4.34 -4.987,4.354 -5.661,4.128 -6.152,3.674 l -1.31,-1.213 -1.353,1.165 c -5.039,4.336 -6.662,11.602 -3.946,17.669 0.653,1.459 1.53,2.803 2.606,3.992 l 1.156,1.277 1.434,-0.953 c 0.059,-0.039 0.123,-0.068 0.19,-0.098 0.607,-0.274 1.28,-0.291 1.896,-0.056 0.616,0.234 1.103,0.696 1.374,1.299 0.158,0.354 0.229,0.716 0.211,1.071 -0.053,1.104 0.798,2.042 1.901,2.096 1.089,0.046 2.041,-0.796 2.096,-1.901 0.046,-0.974 -0.146,-1.976 -0.557,-2.898 -1.317,-2.947 -4.582,-4.425 -7.601,-3.604 -0.41,-0.584 -0.762,-1.206 -1.054,-1.859 -1.795,-4.01 -1.016,-8.729 1.846,-11.962 0.96,0.461 2.018,0.682 3.097,0.637 C -3.384,8.305 -2.568,8.111 -1.82,7.777 0.435,6.768 1.934,4.521 2,2.054 2.03,0.95 1.159,0.03 0.055,0.001 0.037,0 0.019,0 0,0"
             style="fill:#000000;fill-opacity:1;fill-rule:nonzero;stroke:none"
             id="path1031"
             inkscape:connector-curvature="0" /></g><g
           id="g1033"
           transform="translate(361.3995,482.9619)"
           style="fill:#000000"><path
             d="m 0,0 c -1.104,0 -2,0.896 -2,2 v 38.518 c 0,1.104 0.896,2 2,2 1.104,0 2,-0.896 2,-2 V 2 C 2,0.896 1.104,0 0,0"
             style="fill:#000000;fill-opacity:1;fill-rule:nonzero;stroke:none"
             id="path1035"
             inkscape:connector-curvature="0" /></g><g
           id="g1037"
           transform="translate(349.2315,449.1943)"
           style="fill:#000000"><path
             d="m 0,0 c -1.104,0 -2,0.896 -2,2 v 30.932 c 0,1.104 0.896,2 2,2 1.104,0 2,-0.896 2,-2 V 2 C 2,0.896 1.104,0 0,0"
             style="fill:#000000;fill-opacity:1;fill-rule:nonzero;stroke:none"
             id="path1039"
             inkscape:connector-curvature="0" /></g><g
           id="g1041"
           transform="translate(368.9776,455.5927)"
           style="fill:#000000"><path
             d="m 0,0 -1.599,0.461 c -5.38,1.551 -9.136,6.54 -9.136,12.132 0,6.964 5.666,12.63 12.63,12.63 1.395,0 2.782,-0.231 4.124,-0.687 L 7.762,23.944 7.315,22.157 c -0.041,-0.162 -0.06,-0.327 -0.06,-0.505 0,-1.024 0.612,-1.925 1.558,-2.297 0.565,-0.225 1.209,-0.231 1.791,-0.007 1.026,0.397 2.188,-0.114 2.586,-1.145 0.399,-1.03 -0.114,-2.188 -1.144,-2.586 -1.522,-0.589 -3.232,-0.571 -4.704,0.02 -2.31,0.903 -3.865,3.018 -4.066,5.474 -0.458,0.075 -0.92,0.112 -1.381,0.112 -4.759,0 -8.63,-3.871 -8.63,-8.63 0,-3.322 1.942,-6.334 4.868,-7.759 1.04,1.228 2.522,2.049 4.153,2.244 0.183,0.033 0.463,0.055 0.789,0.055 2.145,0 4.15,-1.063 5.363,-2.844 C 9.06,3.377 8.824,2.133 7.911,1.511 6.999,0.886 5.754,1.124 5.133,2.037 4.665,2.723 3.896,3.133 3.075,3.133 2.999,3.133 2.927,3.133 2.854,3.12 1.985,3.014 1.284,2.536 0.906,1.844 Z"
             style="fill:#000000;fill-opacity:1;fill-rule:nonzero;stroke:none"
             id="path1043"
             inkscape:connector-curvature="0" /></g><g
           id="g1045"
           transform="translate(406.6036,475.2451)"
           style="fill:#000000"><path
             d="m 0,0 h -23.057 c -1.104,0 -2,0.896 -2,2 0,1.104 0.896,2 2,2 H 0 C 1.104,4 2,3.104 2,2 2,0.896 1.104,0 0,0"
             style="fill:#000000;fill-opacity:1;fill-rule:nonzero;stroke:none"
             id="path1047"
             inkscape:connector-curvature="0" /></g><g
           id="g1049"
           transform="translate(400.5558,497.584)"
           style="fill:#000000"><path
             d="m 0,0 c -1.35,0 -2.462,1.075 -2.498,2.433 -0.037,1.38 1.052,2.529 2.432,2.566 6.854,0.184 13.611,3.926 18.076,10.01 7.066,9.626 4.476,19.606 -0.304,25.736 -4.971,6.375 -15.257,11.993 -27.883,6.846 -1.278,-0.521 -2.737,0.094 -3.259,1.372 -0.52,1.278 0.094,2.737 1.373,3.259 12.518,5.102 25.753,1.805 33.712,-8.403 7.42,-9.515 7.574,-21.985 0.392,-31.769 C 16.669,4.729 8.455,0.226 0.068,0.001 0.045,0 0.022,0 0,0"
             style="fill:#000000;fill-opacity:1;fill-rule:nonzero;stroke:none"
             id="path1051"
             inkscape:connector-curvature="0" /></g><g
           id="g1053"
           transform="translate(225.0558,388.1123)"
           style="fill:#000000"><path
             d="M 0,0 H -4.414 V 31.327 H -0.83 L 9.265,16.111 19.359,31.327 h 3.496 V 0 h -4.37 V 22.063 L 10.488,9.891 H 7.997 L 0,22.063 Z"
             style="fill:#000000;fill-opacity:1;fill-rule:nonzero;stroke:none"
             id="path1055"
             inkscape:connector-curvature="0" /></g><g
           id="g1057"
           transform="translate(274.087,411.8759)"
           style="fill:#000000"><path
             d="m 0,0 c -2.054,2.104 -4.895,3.401 -7.91,3.401 -3.015,0 -5.812,-1.297 -7.822,-3.401 -2.01,-2.059 -3.278,-4.923 -3.278,-8.1 0,-3.177 1.268,-6.042 3.278,-8.1 2.01,-2.104 4.807,-3.402 7.822,-3.402 3.015,0 5.856,1.298 7.91,3.402 1.967,2.058 3.234,4.878 3.234,8.1 0,3.222 -1.267,6.041 -3.234,8.1 m -18.922,3.223 c 2.797,2.909 6.73,4.744 11.012,4.744 4.327,0 8.216,-1.835 11.056,-4.744 C 5.9,0.313 7.691,-3.669 7.691,-8.1 c 0,-4.43 -1.791,-8.414 -4.545,-11.323 -2.84,-2.954 -6.729,-4.744 -11.056,-4.744 -4.282,0 -8.215,1.79 -11.012,4.744 -2.754,2.909 -4.545,6.893 -4.545,11.323 0,4.431 1.791,8.413 4.545,11.323"
             style="fill:#000000;fill-opacity:1;fill-rule:nonzero;stroke:none"
             id="path1059"
             inkscape:connector-curvature="0" /></g><g
           id="g1061"
           transform="translate(290.5621,404)"
           style="fill:#000000"><path
             d="m 0,0 h 5.157 c 3.715,0 5.55,2.729 5.55,5.46 0,2.685 -1.835,5.415 -5.55,5.415 h -6.774 v -26.763 h -4.37 V 15.439 H 5.157 c 6.642,0 9.964,-5.011 9.964,-9.979 0,-4.431 -2.666,-8.638 -7.911,-9.577 l 9.659,-11.771 H 11.144 L 0,-2.148 Z"
             style="fill:#000000;fill-opacity:1;fill-rule:nonzero;stroke:none"
             id="path1063"
             inkscape:connector-curvature="0" /></g><g
           id="g1065"
           transform="translate(318.6612,403.0156)"
           style="fill:#000000"><path
             d="M 0,0 C 3.715,0 5.55,2.953 5.55,5.907 5.55,8.905 3.715,11.859 0,11.859 H -6.73 V 0 Z m 0,16.424 c 6.599,0 9.92,-5.236 9.92,-10.472 C 9.92,0.716 6.599,-4.476 0,-4.476 h -6.73 v -10.427 h -4.458 v 31.327 z"
             style="fill:#000000;fill-opacity:1;fill-rule:nonzero;stroke:none"
             id="path1067"
             inkscape:connector-curvature="0" /></g><g
           id="g1069"
           transform="translate(334.961,406.1924)"
           style="fill:#000000"><path
             d="m 0,0 h 12.936 v 13.203 h 4.458 V -18.08 H 12.936 V -4.475 H 0 V -18.08 H -4.414 V 13.203 H 0 Z"
             style="fill:#000000;fill-opacity:1;fill-rule:nonzero;stroke:none"
             id="path1071"
             inkscape:connector-curvature="0" /></g><g
           id="g1073"
           transform="translate(359.4757,392.6318)"
           style="fill:#000000"><path
             d="M 0,0 H 14.203 V -4.52 H -4.457 V 26.764 H 14.16 V 22.243 H 0 V 13.427 H 13.854 V 8.861 H 0 Z"
             style="fill:#000000;fill-opacity:1;fill-rule:nonzero;stroke:none"
             id="path1075"
             inkscape:connector-curvature="0" /></g><g
           id="g1077"
           transform="translate(383.5977,401.583)"
           style="fill:#000000"><path
             d="M 0,0 H 7.604 L 3.846,11.055 Z m 9.309,-4.252 h -10.97 c -1.18,-2.864 -2.709,-6.623 -3.67,-9.219 h -4.764 L 2.185,18.26 h 3.234 l 12.28,-31.731 h -4.72 z"
             style="fill:#000000;fill-opacity:1;fill-rule:nonzero;stroke:none"
             id="path1079"
             inkscape:connector-curvature="0" /></g><g
           id="g1081"
           transform="translate(401.7774,388.1123)"
           style="fill:#000000"><path
             d="M 0,0 V 31.372 L 3.409,31.327 18.311,9.264 v 22.063 h 4.37 V 0 H 19.185 L 4.414,21.885 V 0 Z"
             style="fill:#000000;fill-opacity:1;fill-rule:nonzero;stroke:none"
             id="path1083"
             inkscape:connector-curvature="0" /></g><g
           id="g1085"
           transform="translate(444.1671,411.3398)"
           style="fill:#000000"><path
             d="m 0,0 c -0.612,2.819 -3.584,4.027 -6.25,3.982 -2.054,-0.044 -4.326,-0.76 -5.55,-2.372 -0.612,-0.805 -0.83,-1.835 -0.743,-2.908 0.219,-3.223 3.671,-3.626 6.949,-3.938 4.196,-0.537 9.396,-1.657 10.575,-6.669 0.131,-0.671 0.219,-1.432 0.219,-2.059 0,-6.042 -5.856,-9.532 -11.362,-9.532 -4.72,0 -10.445,2.864 -11.013,8.458 l -0.044,0.85 4.457,0.09 0.044,-0.672 v 0.18 c 0.306,-2.909 3.759,-4.431 6.599,-4.431 3.278,0 6.861,1.879 6.861,5.102 0,0.314 -0.043,0.671 -0.131,1.074 -0.524,2.372 -3.671,2.775 -6.73,3.088 -4.763,0.492 -10.357,1.567 -10.838,8.101 v -0.045 c -0.174,2.103 0.35,4.207 1.661,5.952 2.054,2.73 5.725,4.162 9.265,4.162 4.719,0 9.614,-2.506 10.4,-8.234 z"
             style="fill:#000000;fill-opacity:1;fill-rule:nonzero;stroke:none"
             id="path1087"
             inkscape:connector-curvature="0" /></g><g
           id="g1089"
           transform="translate(213.8878,534.8057)"
           style="fill:#000000"><path
             d="m 0,0 c -9.244,0 -16.765,-7.521 -16.765,-16.766 0,-9.244 7.521,-16.764 16.765,-16.764 9.244,0 16.765,7.52 16.765,16.764 C 16.765,-7.521 9.244,0 0,0 m 0,-38.53 c -12.001,0 -21.765,9.763 -21.765,21.764 C -21.765,-4.764 -12.001,5 0,5 12.001,5 21.765,-4.764 21.765,-16.766 21.765,-28.767 12.001,-38.53 0,-38.53"
             style="fill:#000000;fill-opacity:1;fill-rule:nonzero;stroke:none"
             id="path1091"
             inkscape:connector-curvature="0" /></g></g></g></g></svg>